first trial
nRows=23
nColumns=38

# SIMM Motion File Header:
name Sujet_04_velo_80.mvnx
datacolumns 38
datarows 23
otherdata 1
range 3.8830 4.2500
endheader
time pelvis_tilt  pelvis_list  pelvis_rotation  pelvis_tx  pelvis_ty  pelvis_tz  hip_flexion_r  hip_adduction_r  hip_rotation_r  knee_angle_r  ankle_angle_r  subtalar_angle_r  mtp_angle_r  hip_flexion_l  hip_adduction_l  hip_rotation_l  knee_angle_l  ankle_angle_l  subtalar_angle_l  mtp_angle_l  lumbar_extension  lumbar_bending  lumbar_rotation  arm_flex_r  arm_add_r  arm_rot_r  elbow_flex_r  pro_sup_r  wrist_flex_r  wrist_dev_r  arm_flex_l  arm_add_l  arm_rot_l  elbow_flex_l  pro_sup_l  wrist_flex_l  wrist_dev_l
3.8830	-17.9934	8.0313	-38.0859	0.0000	1.2500	-0.0000	51.4349	-11.0224	4.1161	42.6848	-0.0572	4.6178	-0.0000	79.5885	-2.9106	-9.1260	108.2183	9.6172	10.7529	0.0000	-17.4129	1.1924	-2.7109	74.5259	-8.6729	32.4409	26.6720	54.7101	-32.5039	-16.8714	78.1501	9.2633	27.7947	13.2526	62.8770	-29.7457	-23.5200	
3.9000	-17.9838	8.0412	-38.0644	0.0000	1.2500	-0.0000	49.6216	-10.8300	4.3458	41.6843	-1.1968	4.6617	-0.0000	81.7333	-3.0620	-9.1860	108.9025	9.8892	10.4657	-0.0000	-17.4350	1.1773	-2.7903	74.5192	-8.8625	32.5919	26.6398	54.3581	-32.4960	-16.8751	78.0531	8.9685	28.1035	13.4502	62.5492	-29.9027	-23.5723	
3.9160	-17.9930	7.9670	-38.3561	0.0000	1.2500	-0.0000	48.2456	-10.4567	4.5589	41.4702	-1.8739	4.5828	0.0000	83.6127	-3.3595	-9.4739	108.9621	10.1233	9.9661	-0.0000	-17.4764	1.1165	-2.7834	74.5225	-9.0445	32.8410	26.7095	54.0087	-32.4605	-16.8479	77.8818	8.6481	28.5378	13.6593	62.1063	-30.0686	-23.6448	
3.9330	-18.0133	7.8327	-38.8405	0.0000	1.2500	-0.0000	47.2746	-9.9990	4.8126	41.9913	-2.1948	4.4438	-0.0000	85.2328	-3.7441	-9.8877	108.4420	10.3192	9.3432	0.0000	-17.5313	1.0344	-2.7191	74.5351	-9.2258	33.1332	26.8530	53.6899	-32.4099	-16.8003	77.6694	8.3080	29.0462	13.8908	61.5805	-30.2358	-23.7221	
3.9500	-18.0225	7.7158	-39.2613	0.0000	1.2500	-0.0000	46.7066	-9.6385	5.0318	43.2347	-2.0862	4.3879	-0.0000	86.4333	-4.0385	-10.2356	107.4274	10.5083	8.7749	-0.0000	-17.5848	0.9711	-2.6601	74.5729	-9.3772	33.3409	27.0052	53.5125	-32.3623	-16.7499	77.4951	8.0271	29.5064	14.1065	61.0906	-30.3755	-23.7799	
3.9660	-18.0077	7.6506	-39.5146	0.0000	1.2500	-0.0000	46.5715	-9.4426	5.1766	45.3221	-1.3717	4.4908	-0.0000	87.1723	-4.1499	-10.4635	105.9095	10.6497	8.2514	-0.0000	-17.6362	0.9448	-2.6331	74.6473	-9.4943	33.3979	27.1578	53.5377	-32.3210	-16.6984	77.3991	7.8454	29.9018	14.2873	60.6564	-30.4856	-23.8104	
3.9830	-17.9827	7.6033	-39.7044	0.0000	1.2500	-0.0000	46.8398	-9.3329	5.2729	48.1334	-0.2254	4.6773	0.0000	87.4906	-4.1592	-10.6488	103.8951	10.7908	7.7723	-0.0000	-17.6867	0.9376	-2.6113	74.7464	-9.5808	33.3707	27.3196	53.7035	-32.2828	-16.6444	77.3398	7.7230	30.2500	14.4456	60.2594	-30.5682	-23.8211	
4.0000	-17.9663	7.5485	-39.8859	0.0000	1.2500	-0.0000	47.4230	-9.2696	5.3392	51.2919	0.9005	4.8627	0.0000	87.3502	-4.1408	-10.8120	101.4953	11.0989	7.5080	0.0000	-17.7260	0.9357	-2.5776	74.8508	-9.6194	33.3309	27.4526	53.9362	-32.2564	-16.6003	77.2737	7.6196	30.4813	14.5905	59.9610	-30.6000	-23.8091	
4.0160	-17.9608	7.4843	-40.0866	0.0000	1.2500	-0.0000	48.3120	-9.2311	5.3208	54.7229	1.8649	5.0312	0.0000	86.6883	-4.1134	-10.9451	98.7462	11.8783	7.5450	-0.0000	-17.7496	0.9301	-2.5229	74.9425	-9.5917	33.2948	27.5455	54.2431	-32.2496	-16.5721	77.1835	7.5209	30.5016	14.7220	59.8377	-30.5525	-23.7651	
4.0330	-17.9637	7.4126	-40.2793	0.0000	1.2500	-0.0000	49.5157	-9.2387	5.2708	58.5087	2.8111	5.1928	0.0000	85.5673	-4.0548	-11.0596	95.6116	12.8275	7.7501	-0.0000	-17.7620	0.9301	-2.4563	75.0390	-9.5161	33.2457	27.6094	54.6170	-32.2543	-16.5536	77.0864	7.4412	30.4052	14.8410	59.8121	-30.4543	-23.6987	
4.0500	-17.9855	7.3154	-40.4374	0.0000	1.2500	-0.0000	50.9731	-9.3137	5.3716	62.5140	3.7091	5.2944	0.0000	84.1377	-3.9789	-11.2019	92.0962	13.2013	7.9823	0.0000	-17.7653	0.9493	-2.3878	75.1743	-9.4303	33.2056	27.6391	54.9630	-32.2549	-16.5397	76.9917	7.3832	30.4041	14.9592	59.7142	-30.3679	-23.6365	
4.0660	-18.0321	7.1838	-40.5329	0.0000	1.2500	-0.0000	52.6997	-9.4662	5.7342	66.8004	4.5538	5.3031	-0.0000	82.4208	-3.8852	-11.4013	88.0965	12.6509	8.2030	0.0000	-17.7572	0.9950	-2.3199	75.3494	-9.3457	33.1976	27.6304	55.2261	-32.2471	-16.5288	76.8817	7.3494	30.6428	15.1026	59.4282	-30.3187	-23.5805	
4.0830	-18.0976	7.0267	-40.5941	0.0000	1.2500	-0.0000	54.6840	-9.6723	6.2535	71.3299	5.3475	5.2456	-0.0000	80.3956	-3.7727	-11.6250	83.7130	11.5230	8.4720	-0.0000	-17.7401	1.0599	-2.2500	75.5633	-9.2507	33.1984	27.5871	55.4616	-32.2351	-16.5224	76.7745	7.3370	30.9767	15.2429	59.0707	-30.2812	-23.5285	
4.1000	-18.1752	6.8525	-40.6778	0.0000	1.2500	-0.0000	56.8251	-9.9020	6.7872	75.8155	6.0687	5.1637	0.0000	78.1485	-3.6553	-11.8286	79.2612	10.1071	8.8305	0.0000	-17.7237	1.1361	-2.1802	75.8470	-9.1490	33.1613	27.5160	55.7403	-32.2164	-16.5193	76.7328	7.3412	31.1839	15.3118	58.8195	-30.2408	-23.5007	
4.1160	-18.2681	6.6715	-40.7733	0.0000	1.2500	-0.0000	59.1142	-10.1709	7.2963	80.2246	6.6911	5.0584	-0.0000	75.6733	-3.5273	-11.9699	74.7815	8.3766	9.4169	0.0000	-17.7099	1.2284	-2.1220	76.2331	-9.0297	33.0797	27.3949	56.0802	-32.1855	-16.5197	76.8076	7.3626	31.1388	15.2658	58.7789	-30.1827	-23.5071	
4.1330	-18.3727	6.4734	-40.8916	0.0000	1.2500	-0.0000	61.5619	-10.4599	7.8222	84.5922	7.2378	4.9329	0.0000	72.9759	-3.3980	-12.0934	70.2369	6.3496	10.1079	0.0000	-17.6972	1.3319	-2.0637	76.6894	-8.9030	32.9609	27.2463	56.4636	-32.1477	-16.5234	76.9478	7.4006	30.9668	15.1509	58.8439	-30.1218	-23.5376	
4.1500	-18.4701	6.2351	-41.1221	0.0000	1.2500	-0.0000	64.0932	-10.6914	8.3307	88.7103	7.7632	4.8421	0.0000	70.1613	-3.2962	-12.2954	65.8276	4.3873	10.5479	-0.0000	-17.6902	1.4237	-1.9728	77.1497	-8.8040	32.7789	27.1423	56.9079	-32.1172	-16.5281	77.0635	7.4495	30.8223	15.0348	58.8777	-30.0893	-23.5825	
4.1660	-18.5546	5.9172	-41.5288	0.0000	1.2500	-0.0000	66.7199	-10.8243	8.8031	92.5506	8.2514	4.8316	0.0000	67.1861	-3.2331	-12.7126	61.5069	2.5602	10.5177	-0.0000	-17.6948	1.5022	-1.8265	77.6343	-8.7547	32.4557	27.1133	57.4891	-32.0950	-16.5302	77.1301	7.5229	30.7742	14.9273	58.8167	-30.1170	-23.6455	
4.1830	-18.6290	5.5587	-42.0480	0.0000	1.2500	-0.0000	69.4264	-10.8964	9.2329	96.1177	8.7195	4.8669	0.0000	64.0971	-3.1697	-13.2328	57.3145	0.7993	10.2392	0.0000	-17.7056	1.5689	-1.6476	78.1235	-8.7328	32.0697	27.1251	58.1306	-32.0802	-16.5335	77.1724	7.6074	30.7538	14.8177	58.7234	-30.1737	-23.7236	
4.2000	-18.6895	5.2552	-42.5770	0.0000	1.2500	-0.0000	72.0953	-10.9496	9.6060	99.2411	9.2733	4.8877	-0.0000	61.1313	-3.0731	-13.5723	53.5856	-0.7377	10.0172	0.0000	-17.7097	1.6049	-1.4713	78.4900	-8.7078	31.8280	27.1555	58.6215	-32.0835	-16.5471	77.1752	7.6582	30.7094	14.7441	58.6510	-30.1951	-23.7959	
4.2160	-18.7180	5.0465	-43.1101	0.0000	1.2500	-0.0000	74.7326	-11.0026	9.9200	101.9214	9.9641	4.8979	0.0000	58.2864	-2.9434	-13.5835	50.3770	-2.0102	9.9897	0.0000	-17.7054	1.5970	-1.3025	78.6662	-8.6671	31.8449	27.2098	58.8675	-32.1117	-16.5753	77.1131	7.6547	30.6056	14.7252	58.6230	-30.1421	-23.8573	
4.2330	-18.7342	4.8935	-43.6524	0.0000	1.2500	-0.0000	77.3309	-11.0365	10.1792	104.1410	10.7405	4.8984	-0.0000	55.5586	-2.8069	-13.4039	47.6407	-3.0557	10.0185	-0.0000	-17.6937	1.5589	-1.1363	78.7187	-8.6246	32.0055	27.2865	58.9636	-32.1579	-16.6136	77.0109	7.6181	30.4781	14.7429	58.6168	-30.0533	-23.9122	
4.2500	-18.7916	4.7731	-44.1168	0.0000	1.2500	-0.0000	79.7546	-11.0424	10.3968	105.7104	11.5540	4.8259	0.0000	53.1802	-2.6912	-13.1618	45.5603	-3.8277	9.9901	-0.0000	-17.6659	1.5116	-0.9940	78.7217	-8.5901	32.1732	27.3554	58.9838	-32.2118	-16.6574	76.9283	7.5658	30.3814	14.7801	58.6170	-29.9810	-23.9537	
